<?xml version="1.0" standalone="no"?>
<!DOCTYPE svg PUBLIC "-//W3C//DTD SVG 20010904//EN"
 "http://www.w3.org/TR/2001/REC-SVG-20010904/DTD/svg10.dtd">
<svg version="1.0" xmlns="http://www.w3.org/2000/svg"
 width="413.000000pt" height="413.000000pt" viewBox="0 0 413.000000 413.000000"
 preserveAspectRatio="xMidYMid meet">
<metadata>
Created by potrace 1.14, written by Peter Selinger 2001-2017
</metadata>
<g transform="translate(0.000000,413.000000) scale(0.100000,-0.100000)"
fill="#000000" stroke="none">
<path d="M3480 3959 c0 -34 -13 -49 -81 -99 -38 -28 -83 -69 -99 -93 -17 -23
-36 -49 -43 -57 -40 -50 -103 -126 -107 -130 -13 -11 -79 -102 -83 -113 -2 -7
-28 10 -60 39 -43 38 -70 54 -109 62 -28 7 -53 10 -56 7 -3 -2 43 -54 102
-115 143 -150 155 -172 162 -296 3 -55 12 -126 20 -159 16 -64 12 -120 -13
-168 -18 -35 -53 -34 -64 3 -3 14 -13 45 -20 70 -8 25 -12 51 -11 58 2 8 -4
20 -14 26 -11 9 -19 32 -22 70 -4 48 -9 61 -33 78 -34 26 -53 68 -47 108 4 26
1 30 -18 30 -13 0 -28 9 -34 20 -6 11 -14 19 -18 19 -22 -4 -32 5 -42 36 -6
19 -16 35 -21 35 -5 0 -9 7 -9 15 0 8 -5 15 -11 15 -5 0 -7 -4 -4 -10 8 -13
-13 -13 -51 0 -16 5 -56 11 -89 13 -33 3 -86 14 -119 26 -32 12 -60 20 -62 18
-3 -2 25 -21 61 -43 71 -41 149 -103 141 -112 -3 -2 23 -39 58 -81 78 -94 204
-278 240 -350 18 -37 25 -63 21 -81 -6 -26 -3 -28 59 -44 40 -11 73 -27 88
-43 l23 -26 -24 6 c-21 5 -20 2 13 -32 23 -24 50 -41 70 -44 37 -6 111 -35
105 -41 -2 -2 -23 -1 -46 3 l-41 8 10 -26 c5 -14 12 -65 15 -113 6 -86 5 -89
-21 -113 -29 -27 -33 -58 -15 -146 l11 -55 -72 -154 c-39 -85 -80 -162 -90
-170 -11 -8 -29 -42 -40 -74 -49 -143 -224 -420 -348 -548 -151 -157 -313
-280 -519 -391 -496 -271 -621 -312 -904 -302 -108 3 -156 9 -171 19 -22 16
-57 8 -84 -19 -9 -8 -25 -15 -37 -16 -12 0 -40 -7 -62 -14 -64 -22 535 -13
625 9 49 12 114 16 265 16 277 0 412 28 605 125 60 30 79 35 140 35 38 0 70
-4 70 -9 0 -6 45 -57 99 -114 113 -119 133 -153 151 -254 12 -66 11 -77 -5
-113 -13 -29 -15 -44 -8 -51 8 -8 95 -9 288 -4 l276 8 23 31 c89 119 80 284
-24 445 -52 80 -87 101 -167 101 l-63 0 -30 60 c-28 55 -33 60 -63 60 -20 0
-39 8 -50 20 -13 15 -30 20 -69 21 -47 1 -121 15 -91 18 17 1 197 138 285 217
133 119 236 257 347 464 27 52 57 115 66 140 8 25 23 50 31 57 9 6 49 82 90
168 62 132 72 159 64 181 -6 14 -10 52 -10 84 0 48 4 63 21 79 20 18 21 27 17
109 -3 49 -9 96 -14 105 -15 27 -187 169 -222 184 -31 13 -33 16 -27 46 4 18
8 33 9 34 0 1 21 -3 46 -7 85 -17 100 -14 116 25 18 44 18 82 -1 170 -8 39
-15 102 -15 141 0 66 -3 77 -35 125 -35 51 -36 54 -25 102 10 50 41 96 161
242 105 128 134 158 187 197 51 38 82 81 69 94 -3 4 -121 39 -262 79 -223 63
-255 70 -255 54z m-885 -3104 c6 -2 -23 -4 -62 -4 -103 -1 -91 -15 17 -19 49
-2 102 -8 117 -13 20 -6 6 -8 -49 -5 -43 3 -78 2 -78 0 0 -3 4 -13 10 -23 8
-15 -1 -27 -52 -67 -102 -82 -95 -80 -190 -66 -46 7 -113 12 -149 12 -35 0
-70 4 -76 8 -8 5 43 38 145 91 86 46 161 87 165 91 8 7 180 3 202 -5z"/>
<path d="M1375 3664 c-317 -31 -531 -139 -605 -307 -36 -82 -55 -306 -31 -364
l13 -32 70 87 c99 122 179 202 203 202 40 1 99 45 126 95 30 57 116 125 234
187 44 22 84 47 88 55 4 7 18 13 31 13 13 0 47 11 77 23 49 22 51 24 27 30
-34 9 -184 16 -233 11z"/>
<path d="M2122 3620 c-51 -12 -49 -17 14 -36 48 -14 65 -15 108 -5 28 7 87 16
131 20 l80 7 -40 12 c-44 13 -241 15 -293 2z"/>
<path d="M1814 3525 c-122 -43 -304 -130 -324 -155 -8 -11 -40 -32 -70 -47
-36 -18 -66 -44 -88 -73 -78 -107 -134 -171 -166 -187 -40 -20 -191 -180 -201
-212 -3 -12 -15 -21 -26 -21 -15 0 -19 -7 -19 -33 0 -21 -8 -41 -19 -51 -19
-17 -19 -18 4 -53 13 -19 27 -42 30 -52 3 -10 23 -23 45 -30 46 -13 67 -37 27
-29 -18 4 -24 1 -20 -9 7 -17 -15 -43 -36 -43 -9 0 -42 20 -73 45 -31 24 -59
41 -61 37 -2 -4 -12 -32 -22 -62 -13 -39 -34 -71 -72 -111 -54 -57 -54 -57
-73 -165 -12 -69 -27 -118 -40 -136 -11 -15 -20 -42 -20 -61 0 -18 -9 -69 -21
-113 -32 -123 -23 -257 30 -439 43 -148 51 -226 26 -259 -25 -33 -19 -48 15
-41 l30 7 0 -75 c0 -82 4 -87 77 -87 17 0 35 -5 39 -11 5 -8 -4 -10 -29 -7
l-36 4 21 -36 c40 -65 92 -130 105 -130 6 0 49 -25 94 -56 85 -58 181 -108
234 -120 l30 -7 -21 24 c-27 30 -61 156 -47 170 14 14 174 28 329 29 l132 0
55 93 c154 258 512 676 622 726 28 13 62 35 78 49 26 25 37 62 17 62 -16 0
-11 26 8 43 10 10 26 17 34 17 9 0 43 29 76 64 33 35 75 72 93 82 19 9 107 89
197 177 l162 161 0 48 c0 27 -9 74 -20 105 -23 65 -151 295 -222 399 -26 39
-48 73 -48 77 0 10 -103 137 -111 137 -4 0 -28 -39 -53 -86 -55 -103 -128
-198 -185 -239 -35 -25 -81 -88 -81 -110 0 -13 32 -3 47 15 10 11 30 20 46 20
17 0 36 8 45 20 13 16 33 22 87 26 39 3 98 7 133 10 40 4 62 2 62 -5 0 -5 -19
-34 -43 -63 -23 -29 -58 -78 -76 -108 -36 -60 -103 -132 -337 -367 -83 -83
-162 -155 -175 -158 -13 -3 -51 -37 -84 -75 -33 -38 -67 -69 -76 -69 -9 -1
-27 -10 -40 -20 -19 -16 -22 -22 -11 -32 33 -34 4 -78 -78 -119 -25 -13 -64
-36 -88 -53 -57 -41 -281 -301 -446 -519 -32 -43 -60 -78 -61 -78 -7 0 49 230
66 265 l21 45 -26 102 c-32 125 -33 223 -6 327 11 41 20 90 20 109 0 19 9 47
20 63 13 17 27 64 36 116 19 115 28 135 74 172 21 17 47 49 57 72 17 39 19 41
53 35 19 -3 93 -11 164 -18 l129 -11 24 27 c16 19 23 40 23 70 0 28 8 55 23
77 12 19 39 68 58 109 79 165 184 262 334 310 27 9 59 33 100 77 59 63 62 65
134 79 41 7 79 18 84 23 14 14 -48 73 -143 136 -83 55 -86 56 -137 50 -29 -4
-87 -17 -130 -31 -83 -25 -137 -30 -175 -15 -13 5 -53 17 -90 27 -46 11 -65
21 -61 30 2 7 63 37 135 66 124 51 129 53 101 64 -64 25 -98 23 -199 -11z"/>
</g>
</svg>
