<?xml version="1.0" standalone="no"?>
<!DOCTYPE svg PUBLIC "-//W3C//DTD SVG 20010904//EN"
 "http://www.w3.org/TR/2001/REC-SVG-20010904/DTD/svg10.dtd">
<svg version="1.0" xmlns="http://www.w3.org/2000/svg"
 width="415.000000pt" height="415.000000pt" viewBox="0 0 415.000000 415.000000"
 preserveAspectRatio="xMidYMid meet">
<metadata>
Created by potrace 1.14, written by Peter Selinger 2001-2017
</metadata>
<g transform="translate(0.000000,415.000000) scale(0.100000,-0.100000)"
fill="#000000" stroke="none">
<path d="M3422 4024 c-12 -8 -39 -31 -59 -49 -21 -19 -57 -44 -81 -56 -23 -13
-60 -43 -80 -67 -20 -25 -43 -51 -49 -58 -7 -7 -13 -15 -13 -18 0 -5 -8 -16
-52 -68 -10 -12 -18 -24 -18 -28 0 -4 -105 19 -232 51 -420 106 -441 110 -574
105 -66 -2 -128 -6 -139 -9 -11 -2 -40 -8 -65 -12 -25 -4 -79 -16 -120 -27
-41 -11 -79 -21 -85 -22 -5 -1 -16 -5 -23 -9 -14 -9 -57 -11 -87 -4 -11 3 -83
19 -160 37 -77 17 -157 35 -177 39 -37 9 -243 7 -283 -2 -52 -11 -81 -21 -93
-30 -6 -5 -12 -6 -12 -2 0 12 -168 -82 -229 -129 -73 -57 -146 -139 -179 -203
-13 -26 -28 -56 -33 -65 -17 -34 -30 -114 -30 -183 0 -79 25 -163 76 -266 l33
-67 -35 -53 c-19 -29 -46 -74 -61 -99 -14 -25 -31 -48 -37 -52 -5 -4 -6 -8 -2
-8 4 0 -3 -19 -17 -42 -52 -90 -129 -290 -170 -440 -46 -175 -60 -273 -60
-433 0 -136 7 -212 29 -295 9 -36 19 -76 21 -90 3 -14 11 -46 20 -71 8 -25 17
-54 19 -65 27 -116 41 -150 74 -181 10 -10 48 -58 85 -106 65 -88 65 -89 46
-109 -23 -25 -41 -103 -35 -152 11 -81 63 -158 119 -175 42 -12 713 -12 768 1
122 28 156 31 373 33 110 1 211 5 225 9 14 3 50 11 80 17 75 14 68 12 132 37
32 12 89 37 128 57 59 30 79 35 137 35 l68 -1 35 -47 c19 -26 50 -60 70 -77
56 -49 87 -84 113 -134 43 -77 56 -193 29 -241 -19 -33 -10 -49 28 -51 64 -2
498 11 520 16 48 10 101 145 95 239 -6 89 -47 192 -107 269 -41 51 -76 67
-147 67 l-61 0 -30 60 c-23 45 -36 60 -53 61 -39 2 -43 4 -61 22 -10 9 -29 17
-44 18 -32 1 -103 6 -117 8 -5 1 5 10 24 22 19 11 40 27 48 35 8 8 19 14 24
14 5 0 17 8 27 18 10 9 49 42 87 73 112 90 236 218 269 278 5 9 12 18 16 21
25 19 190 318 204 370 11 39 28 70 37 65 6 -4 74 124 78 148 0 4 19 43 41 87
22 45 38 85 35 90 -11 18 -17 55 -16 109 0 44 4 58 21 71 19 14 21 25 19 90
-3 108 -12 132 -66 176 -25 21 -62 53 -82 71 -20 18 -55 43 -78 55 -38 20 -42
26 -37 53 3 16 6 30 7 31 1 2 33 -3 71 -10 l68 -13 19 31 c21 34 25 108 9 152
-6 15 -13 66 -16 113 -3 47 -6 97 -8 111 -4 31 -29 82 -50 99 -16 13 -16 53 0
103 8 26 71 111 156 211 32 37 58 71 58 75 0 11 60 73 100 102 46 34 100 86
100 97 -1 23 -35 36 -270 102 -140 40 -262 74 -270 77 -9 2 -26 -3 -38 -12z
m-879 -793 c-5 -3 -24 -35 -42 -71 -51 -97 -97 -163 -156 -225 -30 -30 -56
-55 -59 -55 -10 0 -46 -34 -46 -43 0 -10 -81 -121 -92 -125 -4 -2 -8 -8 -8
-14 0 -5 -21 -30 -46 -56 -26 -26 -52 -60 -59 -76 -10 -22 -20 -29 -45 -31
-34 -3 -50 -18 -50 -47 0 -12 -6 -15 -24 -12 -16 3 -32 -4 -50 -22 -14 -15
-26 -29 -27 -33 0 -3 -2 -13 -5 -21 -2 -8 -7 -28 -10 -45 -8 -38 -27 -59 -70
-80 -22 -10 -36 -25 -40 -43 -12 -57 -52 -130 -114 -208 -36 -45 -82 -104
-102 -130 -87 -113 -169 -220 -181 -234 -7 -8 -33 -43 -58 -76 l-45 -61 -13
41 c-6 22 -11 43 -11 46 1 3 -4 18 -10 34 -28 75 -28 210 0 301 11 36 18 80
19 121 1 17 10 41 21 54 11 13 20 26 21 29 0 3 2 13 4 21 5 25 15 83 21 125 9
55 26 85 68 118 19 16 43 47 53 68 17 39 18 40 58 34 22 -3 65 -8 95 -10 30
-3 80 -8 110 -12 68 -8 80 -6 106 18 16 15 23 37 27 80 3 40 12 68 25 82 22
26 52 84 52 104 0 7 5 13 10 13 6 0 10 6 10 13 0 29 93 147 157 198 28 22 110
63 158 79 28 9 59 34 102 80 34 36 68 67 75 67 22 1 92 13 123 22 29 8 65 -5
48 -18z m405 -807 c-2 -29 3 -39 30 -60 41 -33 41 -44 -2 -34 -57 13 -68 -1
-105 -137 -11 -40 -17 -73 -14 -73 3 0 1 -6 -4 -12 -6 -7 -16 -35 -23 -63 -33
-125 -127 -337 -201 -455 -91 -143 -262 -340 -296 -340 -10 0 -32 -20 -50 -43
-45 -60 -82 -98 -128 -132 -22 -16 -51 -40 -65 -52 -23 -21 -34 -23 -126 -22
-58 1 -110 -4 -122 -10 -27 -14 -232 -15 -232 0 0 15 15 42 78 139 30 47 59
87 63 88 5 2 9 8 9 13 0 5 6 17 14 26 8 10 51 63 94 118 87 110 210 255 276
325 44 47 96 85 156 112 65 31 101 84 70 103 -25 15 8 55 46 55 13 0 24 3 24
8 1 14 106 119 135 134 17 9 44 28 60 43 45 40 236 230 270 269 39 44 46 44
43 0z"/>
</g>
</svg>
